<?xml version="1.0" standalone="no"?>
<!DOCTYPE svg PUBLIC "-//W3C//DTD SVG 20010904//EN"
 "http://www.w3.org/TR/2001/REC-SVG-20010904/DTD/svg10.dtd">
<svg version="1.0" xmlns="http://www.w3.org/2000/svg"
 width="1024.000000pt" height="1024.000000pt" viewBox="0 0 1024.000000 1024.000000"
 preserveAspectRatio="xMidYMid meet">
<metadata>
Created by potrace 1.14, written by Peter Selinger 2001-2017
</metadata>
<g transform="translate(0.000000,1024.000000) scale(0.100000,-0.100000)"
fill="#000000" stroke="none">
<path d="M4770 10230 c-1136 -88 -2160 -512 -3005 -1244 -158 -137 -445 -430
-575 -586 -623 -750 -1017 -1641 -1144 -2590 -34 -253 -41 -372 -41 -690 0
-329 7 -437 46 -720 150 -1088 664 -2114 1449 -2900 793 -793 1827 -1306 2930
-1454 253 -34 372 -41 690 -41 400 0 658 25 1012 96 1003 202 1903 689 2636
1427 94 96 172 177 172 181 0 3 -109 4 -242 3 -354 -5 -622 23 -914 97 -344
87 -680 250 -966 468 l-57 44 -113 -85 c-140 -106 -331 -221 -466 -281 -278
-123 -625 -207 -979 -236 -208 -17 -665 -6 -808 19 -284 51 -482 126 -683 259
-98 65 -247 205 -312 292 -25 33 -48 60 -51 61 -3 0 -13 -18 -21 -39 -25 -64
-106 -193 -160 -257 -120 -141 -284 -242 -472 -289 -310 -79 -753 -37 -1016
95 -311 157 -470 421 -500 833 -6 87 -10 729 -10 1663 0 1464 -1 1522 -18
1538 -12 10 -108 35 -257 66 -131 27 -242 56 -247 62 -4 7 -7 20 -5 28 2 13
40 16 247 20 153 3 252 9 264 16 10 6 226 215 479 465 550 543 546 539 598
539 69 0 69 1 69 -545 l0 -475 481 0 c454 0 481 1 474 18 -22 55 -56 244 -65
366 -42 524 108 1044 419 1451 65 86 241 265 344 352 418 349 1020 587 1692
667 994 118 1855 -49 2671 -520 560 -323 1042 -738 1472 -1267 40 -49 72 -85
72 -82 0 4 -21 55 -46 114 -200 460 -487 912 -828 1306 -137 158 -430 445
-586 575 -561 466 -1197 803 -1880 995 -314 89 -551 134 -895 171 -167 18
-691 26 -855 14z"/>
<path d="M5970 8890 c-279 -19 -558 -70 -771 -141 -302 -100 -513 -223 -700
-409 -228 -225 -338 -472 -369 -826 -24 -271 26 -509 175 -844 105 -235 135
-350 135 -520 0 -129 -15 -205 -58 -284 -35 -65 -131 -168 -188 -201 -162 -95
-395 -98 -583 -8 -91 43 -220 163 -271 252 l-35 61 -503 0 -502 0 2 -1642 3
-1643 27 -96 c63 -229 179 -359 372 -414 46 -13 86 -16 177 -13 112 4 121 6
196 43 84 41 173 122 207 186 l19 36 -41 82 c-52 104 -105 267 -128 396 -22
124 -26 460 -5 575 67 381 205 647 474 906 273 265 652 450 1125 549 137 28
406 65 480 65 67 0 72 6 61 65 -5 28 -18 118 -29 200 -109 840 -1 1438 347
1928 79 111 278 308 393 389 346 245 782 358 1257 327 573 -37 1026 -358 1183
-838 103 -317 70 -742 -83 -1046 -208 -417 -623 -712 -1216 -866 -124 -32
-356 -74 -466 -84 -127 -11 -120 3 -74 -133 150 -447 384 -891 717 -1357 206
-288 493 -652 655 -830 l46 -50 118 120 c65 66 141 154 168 195 116 174 205
389 257 620 20 90 23 132 23 295 -1 222 -7 254 -92 474 -107 279 -105 273
-111 418 -4 114 -2 140 16 200 55 178 220 332 422 394 106 33 275 33 375 2
183 -58 335 -200 409 -381 49 -123 61 -201 61 -407 0 -157 -4 -210 -23 -304
-131 -652 -609 -1189 -1405 -1581 l-177 -87 100 -96 c291 -280 577 -434 914
-492 49 -8 108 -15 131 -15 41 0 43 2 97 77 342 477 606 1024 763 1581 91 326
139 581 177 952 17 166 17 736 0 900 -42 401 -113 762 -215 1081 -36 112 -55
144 -211 349 -675 888 -1637 1549 -2596 1785 -369 90 -840 130 -1230 105z"/>
<path d="M6910 7795 c-190 -54 -368 -269 -475 -575 -80 -233 -111 -486 -102
-850 6 -266 25 -467 67 -715 40 -238 111 -525 130 -525 5 0 42 12 82 26 438
158 720 563 815 1174 25 162 25 653 0 820 -42 284 -108 470 -201 568 -73 79
-199 109 -316 77z"/>
<path d="M5176 4920 c-298 -102 -538 -369 -669 -747 -174 -499 -109 -1140 155
-1531 109 -161 245 -280 423 -367 199 -98 381 -135 661 -135 260 0 444 31 638
106 99 38 286 133 286 145 0 4 -33 37 -74 74 -153 136 -384 412 -530 630 -366
550 -629 1163 -761 1778 -9 42 -22 77 -29 77 -6 0 -51 -14 -100 -30z"/>
</g>
</svg>
